<svg width="32" height="32" viewBox="0 0 32 32" fill="none" xmlns="http://www.w3.org/2000/svg">
<path fill-rule="evenodd" clip-rule="evenodd" d="M2.65308 24.6675C2.5664 24.224 2.62404 17.1926 2.63364 16.1573C2.65844 13.5351 3.46267 11.1856 4.49969 9.44536C6.34719 6.34504 10.3411 3.11158 15.813 3.51325C20.4047 3.85036 24.5101 6.92364 24.8539 11.7338C25.1159 15.4005 22.7991 18.3536 19.7897 19.5099C19.3945 19.6618 16.2629 20.5516 16.0123 19.899C15.9414 19.7147 15.9716 19.484 15.9725 19.2561C15.9738 18.9465 15.9551 18.6304 15.9908 18.3243C16.9496 18.1574 17.4887 18.2003 18.515 17.6816C20.6938 16.5805 22.0353 14.0576 21.4746 11.4012C20.835 8.37104 17.3705 6.31198 13.4541 6.98128C2.90999 8.78321 2.97031 29.2605 12.374 31.3013C21.265 33.2307 29.421 27.3493 31.0572 19.015C31.3655 17.4446 31.5049 14.7881 31.0501 13.2733C30.9424 14.128 30.9781 14.8813 30.822 15.7528C29.9518 20.6085 26.9623 24.34 22.5265 26.6492C20.2622 27.8281 16.5415 28.7192 13.4448 27.8922C6.62509 26.0706 7.45569 10.3622 14.6498 10.0968C16.4066 10.032 17.8035 10.7594 18.1741 12.0861C18.6365 13.7409 17.4737 14.9508 16.0219 15.1228C15.0738 15.2352 14.4384 15.2079 13.7926 15.6451C12.4082 16.5816 12.7643 18.4423 12.7623 20.1497C12.7609 21.2043 12.8655 21.7193 13.38 22.3195C14.2838 23.374 16.0248 23.4727 17.7389 23.3012C23.7416 22.7002 28.3242 17.5522 28.0418 11.7669C27.746 5.70166 23.1201 1.60119 17.0861 0.797182C11.1002 -0.000348389 5.29364 3.01306 2.34055 7.76943C0.994799 9.93706 -0.00334255 13.0416 8.41225e-06 16.3671C0.00224239 18.5734 0.718232 21.1215 1.63774 22.9884C1.80015 23.3181 1.94491 23.5395 2.12519 23.8693C2.2465 24.0911 2.41293 24.5723 2.65241 24.6675H2.65308Z" fill="url(#paint0_linear_5_33)"/>
<defs>
<linearGradient id="paint0_linear_5_33" x1="3.97448" y1="0.737981" x2="26.1087" y2="27.7023" gradientUnits="userSpaceOnUse">
<stop stop-color="#20D6FE"/>
<stop offset="1" stop-color="#9747FF"/>
</linearGradient>
</defs>
</svg>
